<?xml version="1.0" encoding="UTF-8" standalone="no"?>
<svg
   width="21"
   height="10"
   viewBox="0 0 21 10"
   fill="none"
   version="1.1"
   id="svg1"
   sodipodi:docname="arrow-right.svg"
   inkscape:version="1.3 (0e150ed6c4, 2023-07-21)"
   xmlns:inkscape="http://www.inkscape.org/namespaces/inkscape"
   xmlns:sodipodi="http://sodipodi.sourceforge.net/DTD/sodipodi-0.dtd"
   xmlns="http://www.w3.org/2000/svg"
   xmlns:svg="http://www.w3.org/2000/svg">
  <defs
     id="defs1" />
  <sodipodi:namedview
     id="namedview1"
     pagecolor="#ffffff"
     bordercolor="#000000"
     borderopacity="0.25"
     inkscape:showpageshadow="2"
     inkscape:pageopacity="0.0"
     inkscape:pagecheckerboard="0"
     inkscape:deskcolor="#d1d1d1"
     inkscape:zoom="47.142857"
     inkscape:cx="10.5"
     inkscape:cy="4.9954545"
     inkscape:window-width="1920"
     inkscape:window-height="1017"
     inkscape:window-x="-8"
     inkscape:window-y="-8"
     inkscape:window-maximized="1"
     inkscape:current-layer="svg1" />
  <path
     style="color:#000000;fill:#f23e16;stroke-linecap:round;stroke-linejoin:round;-inkscape-stroke:none"
     d="m 15.910156,0.40429688 a 0.75,0.75 0 0 0 -0.53125,0.21874999 0.75,0.75 0 0 0 0,1.06054683 l 2.470703,2.4707032 H 1.6601562 a 0.75,0.75 0 0 0 -0.74999995,0.75 0.75,0.75 0 0 0 0.74999995,0.75 H 17.847656 l -2.46875,2.46875 a 0.75,0.75 0 0 0 0,1.0605469 0.75,0.75 0 0 0 1.060547,0 l 3.75,-3.7500001 A 0.75,0.75 0 0 0 20.410156,4.9042969 0.75,0.75 0 0 0 20.353516,4.6171875 0.75,0.75 0 0 0 20.189453,4.3730469 l -3.75,-3.75000003 A 0.75,0.75 0 0 0 15.910156,0.40429688 Z"
     id="path1" />
</svg>
