<?xml version="1.0" encoding="UTF-8" standalone="no"?>
<svg
   width="20"
   height="10"
   viewBox="0 0 20 10"
   fill="none"
   version="1.1"
   id="svg1"
   sodipodi:docname="arrow-left.svg"
   inkscape:version="1.3 (0e150ed6c4, 2023-07-21)"
   xmlns:inkscape="http://www.inkscape.org/namespaces/inkscape"
   xmlns:sodipodi="http://sodipodi.sourceforge.net/DTD/sodipodi-0.dtd"
   xmlns="http://www.w3.org/2000/svg"
   xmlns:svg="http://www.w3.org/2000/svg">
  <defs
     id="defs1" />
  <sodipodi:namedview
     id="namedview1"
     pagecolor="#ffffff"
     bordercolor="#000000"
     borderopacity="0.25"
     inkscape:showpageshadow="2"
     inkscape:pageopacity="0.0"
     inkscape:pagecheckerboard="0"
     inkscape:deskcolor="#d1d1d1"
     inkscape:zoom="49.5"
     inkscape:cx="10"
     inkscape:cy="5"
     inkscape:window-width="1920"
     inkscape:window-height="1017"
     inkscape:window-x="-8"
     inkscape:window-y="-8"
     inkscape:window-maximized="1"
     inkscape:current-layer="svg1" />
  <path
     style="color:#000000;fill:#f23e16;stroke-linecap:round;stroke-linejoin:round;-inkscape-stroke:none"
     d="M 4.75,0.5 A 0.75,0.75 0 0 0 4.21875,0.71875 l -3.75,3.75 A 0.75,0.75 0 0 0 0.25,5 0.75,0.75 0 0 0 0.46875,5.53125 l 3.75,3.75 a 0.75,0.75 0 0 0 1.0625,0 0.75,0.75 0 0 0 0,-1.0625 L 2.8125,5.75 H 19 A 0.75,0.75 0 0 0 19.75,5 0.75,0.75 0 0 0 19,4.25 H 2.8125 L 5.28125,1.78125 a 0.75,0.75 0 0 0 0,-1.0625 A 0.75,0.75 0 0 0 4.75,0.5 Z"
     id="path1" />
</svg>
