<?xml version="1.0" encoding="UTF-8" standalone="no"?>
<svg
   width="34"
   height="34"
   viewBox="0 0 34 34"
   fill="none"
   version="1.1"
   id="svg2"
   sodipodi:docname="eye.svg"
   inkscape:version="1.3 (0e150ed6c4, 2023-07-21)"
   xmlns:inkscape="http://www.inkscape.org/namespaces/inkscape"
   xmlns:sodipodi="http://sodipodi.sourceforge.net/DTD/sodipodi-0.dtd"
   xmlns="http://www.w3.org/2000/svg"
   xmlns:svg="http://www.w3.org/2000/svg">
  <defs
     id="defs2" />
  <sodipodi:namedview
     id="namedview2"
     pagecolor="#ffffff"
     bordercolor="#000000"
     borderopacity="0.25"
     inkscape:showpageshadow="2"
     inkscape:pageopacity="0.0"
     inkscape:pagecheckerboard="0"
     inkscape:deskcolor="#d1d1d1"
     inkscape:zoom="24.147059"
     inkscape:cx="16.979294"
     inkscape:cy="17"
     inkscape:window-width="1920"
     inkscape:window-height="1017"
     inkscape:window-x="-8"
     inkscape:window-y="-8"
     inkscape:window-maximized="1"
     inkscape:current-layer="svg2" />
  <path
     style="color:#000000;fill:#262626;stroke-linecap:round;stroke-linejoin:round;-inkscape-stroke:none"
     d="m 17,5.625 c -6.897651,0 -12.7632693,4.477084 -14.828125,10.689453 -0.1489012,0.44745 -0.1488542,0.931445 0,1.378906 C 4.2411224,23.902562 10.105338,28.375 17,28.375 c 6.896806,0 12.760055,-4.476313 14.824219,-10.6875 0.150939,-0.448857 0.151608,-0.934107 0,-1.382813 C 29.754222,10.096906 23.893722,5.625 17,5.625 Z m 0,1.5 c 6.246325,0 11.533193,4.047563 13.402344,9.65625 a 0.750075,0.750075 0 0 0 0.002,0.002 c 0.04659,0.137894 0.04726,0.287192 0,0.427734 a 0.750075,0.750075 0 0 0 -0.002,0.002 C 28.538757,22.823773 23.249041,26.875 17,26.875 c -6.246325,0 -11.5352082,-4.047665 -13.4042969,-9.65625 -0.046686,-0.140338 -0.046639,-0.291491 0,-0.431641 C 5.4606835,11.17609 10.751064,7.125 17,7.125 Z"
     id="path1" />
  <path
     style="color:#000000;fill:#262626;stroke-linecap:round;stroke-linejoin:round;-inkscape-stroke:none"
     d="m 17,12 c -1.325832,0 -2.597712,0.527399 -3.535156,1.464844 C 12.527399,14.402288 12,15.674168 12,17 c 0,1.325832 0.527399,2.597712 1.464844,3.535156 C 14.402288,21.472601 15.674168,22 17,22 18.325832,22 19.597712,21.472601 20.535156,20.535156 21.472601,19.597712 22,18.325832 22,17 22,15.674168 21.472601,14.402288 20.535156,13.464844 19.597712,12.527399 18.325832,12 17,12 Z m 0,1.5 c 0.928565,0 1.818055,0.368837 2.474609,1.025391 C 20.131163,15.181945 20.5,16.071435 20.5,17 c 0,0.928565 -0.368837,1.818055 -1.025391,2.474609 C 18.818055,20.131163 17.928565,20.5 17,20.5 16.071435,20.5 15.181945,20.131163 14.525391,19.474609 13.868837,18.818055 13.5,17.928565 13.5,17 c 0,-0.928565 0.368837,-1.818055 1.025391,-2.474609 C 15.181945,13.868837 16.071435,13.5 17,13.5 Z"
     id="path2" />
</svg>
