<?xml version="1.0" encoding="UTF-8" standalone="no"?>
<svg
   width="34"
   height="34"
   viewBox="0 0 34 34"
   fill="none"
   version="1.1"
   id="svg1"
   sodipodi:docname="mainl.svg"
   inkscape:version="1.3 (0e150ed6c4, 2023-07-21)"
   xmlns:inkscape="http://www.inkscape.org/namespaces/inkscape"
   xmlns:sodipodi="http://sodipodi.sourceforge.net/DTD/sodipodi-0.dtd"
   xmlns="http://www.w3.org/2000/svg"
   xmlns:svg="http://www.w3.org/2000/svg">
  <defs
     id="defs1" />
  <sodipodi:namedview
     id="namedview1"
     pagecolor="#ffffff"
     bordercolor="#000000"
     borderopacity="0.25"
     inkscape:showpageshadow="2"
     inkscape:pageopacity="0.0"
     inkscape:pagecheckerboard="0"
     inkscape:deskcolor="#d1d1d1"
     inkscape:zoom="24.147059"
     inkscape:cx="16.979294"
     inkscape:cy="17"
     inkscape:window-width="1920"
     inkscape:window-height="1017"
     inkscape:window-x="-8"
     inkscape:window-y="-8"
     inkscape:window-maximized="1"
     inkscape:current-layer="svg1" />
  <path
     style="color:#000000;fill:#262626;stroke-linecap:round;stroke-linejoin:round;-inkscape-stroke:none"
     d="M 6.375,5.625 C 5.3309944,5.625 4.3280597,6.0391278 3.5898438,6.7773437 2.8516121,7.5155631 2.4375,8.5185003 2.4375,9.5625 V 9.9082031 24.4375 c 0,1.044015 0.4141424,2.04693 1.1523438,2.785156 C 4.32807,27.96092 5.3310121,28.375 6.375,28.375 h 21.25 c 1.044003,0 2.046923,-0.414111 2.785156,-1.152344 C 31.148389,26.484423 31.5625,25.481503 31.5625,24.4375 V 9.90625 9.5625 c 0,-0.099502 -0.04918,-0.1885618 -0.05664,-0.2871094 C 31.435043,8.3399642 31.078056,7.44521 30.410156,6.7773437 29.671934,6.0391582 28.669021,5.625 27.625,5.625 Z m 0,1.5 h 21.25 c 0.646777,0 1.26528,0.2574905 1.722656,0.7148437 C 29.804992,8.2971563 30.0625,8.9157296 30.0625,9.5625 v 0.34375 c 7.6e-5,0.416185 -0.105591,0.825976 -0.308594,1.189453 -0.202864,0.36329 -0.495291,0.668453 -0.849609,0.886719 l -10.625,6.537109 c -0.3845,0.236804 -0.827825,0.363281 -1.279297,0.363281 -0.451472,0 -0.894797,-0.126477 -1.279297,-0.363281 L 5.0957031,11.984375 C 4.7413553,11.766119 4.44902,11.461002 4.2460937,11.097656 4.0431272,10.734175 3.9374541,10.324427 3.9375,9.9082031 V 9.5625 C 3.9375,8.9157414 4.1950166,8.2971632 4.6523437,7.8398437 5.1096667,7.3825208 5.7282473,7.125 6.375,7.125 Z m 23.6875,5.746094 V 24.4375 c 0,0.646795 -0.257478,1.26529 -0.714844,1.722656 C 28.89029,26.617522 28.271795,26.875 27.625,26.875 H 6.375 C 5.7282296,26.875 5.1096563,26.617492 4.6523437,26.160156 4.1949863,25.702783 3.9375,25.084283 3.9375,24.4375 V 12.873047 c 0.1397409,0.115467 0.2177096,0.292994 0.3730469,0.388672 l 10.6250001,6.535156 c 0.620899,0.382396 1.335326,0.585937 2.064453,0.585937 0.729127,0 1.443554,-0.203541 2.064453,-0.585937 l 10.625,-6.537109 c 0.155313,-0.09567 0.233317,-0.273208 0.373047,-0.388672 z"
     id="path1" />
</svg>
