<?xml version="1.0" encoding="UTF-8" standalone="no"?>
<svg
   width="20"
   height="20"
   viewBox="0 0 20 20"
   fill="none"
   version="1.1"
   id="svg1"
   sodipodi:docname="star-clear.svg"
   inkscape:version="1.3 (0e150ed6c4, 2023-07-21)"
   xmlns:inkscape="http://www.inkscape.org/namespaces/inkscape"
   xmlns:sodipodi="http://sodipodi.sourceforge.net/DTD/sodipodi-0.dtd"
   xmlns="http://www.w3.org/2000/svg"
   xmlns:svg="http://www.w3.org/2000/svg">
  <defs
     id="defs1" />
  <sodipodi:namedview
     id="namedview1"
     pagecolor="#ffffff"
     bordercolor="#000000"
     borderopacity="0.25"
     inkscape:showpageshadow="2"
     inkscape:pageopacity="0.0"
     inkscape:pagecheckerboard="0"
     inkscape:deskcolor="#d1d1d1"
     inkscape:zoom="41.05"
     inkscape:cx="9.9878197"
     inkscape:cy="10"
     inkscape:window-width="1920"
     inkscape:window-height="1017"
     inkscape:window-x="-8"
     inkscape:window-y="-8"
     inkscape:window-maximized="1"
     inkscape:current-layer="svg1" />
  <path
     style="color:#000000;fill:#000000;-inkscape-stroke:none"
     d="m 10.011719,0.18164062 c -0.6584055,10e-9 -1.330607,0.39595574 -1.6171877,1.10937498 L 6.5234375,5.9492187 1.6777344,6.3535156 C 0.15440374,6.4795494 -0.47307246,8.480449 0.67382812,9.4980469 L 4.3789062,12.783203 3.2460938,17.703125 c -0.1728721,0.749742 0.1390482,1.460666 0.6660156,1.857422 0.5269673,0.396755 1.3061004,0.491034 1.953125,0.08203 l 4.1464846,-2.623047 4.146484,2.623047 c 0.646921,0.408937 1.426056,0.316583 1.953125,-0.08008 0.527069,-0.396661 0.840757,-1.109337 0.667969,-1.859375 L 15.646484,12.783203 19.351562,9.4980469 C 20.498463,8.480449 19.870988,6.479549 18.347656,6.3535156 L 13.5,5.9492187 11.630859,1.2910156 C 11.344279,0.57759629 10.670124,0.18164062 10.011719,0.18164062 Z m 0,0.99609378 c 0.283705,0 0.552748,0.1343349 0.693359,0.484375 l 2.101563,5.2285156 5.458984,0.4550781 c 0.69654,0.057628 0.968534,0.9229552 0.423828,1.40625 l -4.146484,3.6796879 1.265625,5.49414 c 0.08563,0.371681 -0.06229,0.663303 -0.296875,0.839844 -0.234582,0.176541 -0.519446,0.226577 -0.822266,0.03516 L 10.011719,15.841797 5.3339844,18.800781 C 5.0312694,18.992136 4.7464023,18.942319 4.5117187,18.765625 4.2770352,18.588931 4.1312559,18.29677 4.2167969,17.925781 L 5.4804687,12.431641 1.3339844,8.7519531 C 0.78927889,8.2686583 1.063229,7.4033316 1.7597656,7.3457031 L 7.21875,6.890625 9.3183594,1.6621094 C 9.4589706,1.3120692 9.7280131,1.1777344 10.011719,1.1777344 Z"
     id="path1" />
</svg>
