<svg width="448" height="448" viewBox="0 0 448 448" fill="none" xmlns="http://www.w3.org/2000/svg">
<path d="M224 168.75C285.813 168.75 341.749 175.015 382.21 185.13C402.446 190.189 418.77 196.201 430.016 202.848C441.312 209.524 447.25 216.697 447.25 224C447.25 231.303 441.312 238.476 430.016 245.152C418.77 251.799 402.446 257.811 382.21 262.87C341.749 272.985 285.813 279.25 224 279.25C162.187 279.25 106.251 272.985 65.79 262.87C45.5538 257.811 29.2304 251.799 17.9844 245.152C6.68825 238.476 0.75 231.303 0.75 224C0.75 216.697 6.68825 209.524 17.9844 202.848C29.2304 196.201 45.5538 190.189 65.79 185.13C106.251 175.015 162.187 168.75 224 168.75Z" stroke="url(#paint0_linear_55_2129)" stroke-width="1.5"/>
<path d="M224 112.75C285.765 112.75 341.645 125.269 382.057 145.475C422.513 165.703 447.25 193.509 447.25 224C447.25 254.491 422.513 282.297 382.057 302.525C341.645 322.731 285.765 335.25 224 335.25C162.235 335.25 106.355 322.731 65.9434 302.525C25.4871 282.297 0.75 254.491 0.75 224C0.75 193.509 25.4871 165.703 65.9434 145.475C106.355 125.269 162.235 112.75 224 112.75Z" stroke="url(#paint1_linear_55_2129)" stroke-width="1.5"/>
<path d="M224 56.75C285.709 56.75 341.548 75.51 381.942 105.806C422.336 136.101 447.25 177.897 447.25 224C447.25 270.103 422.336 311.899 381.942 342.194C341.548 372.49 285.709 391.25 224 391.25C162.291 391.25 106.452 372.49 66.0576 342.194C25.6637 311.899 0.75 270.103 0.75 224C0.75 177.897 25.6637 136.101 66.0576 105.806C106.452 75.51 162.291 56.75 224 56.75Z" stroke="url(#paint2_linear_55_2129)" stroke-width="1.5"/>
<circle cx="224" cy="224" r="223.25" stroke="url(#paint3_linear_55_2129)" stroke-width="1.5"/>
<path d="M213.609 212.3H220.661C224.69 212.3 226.704 213.829 226.704 216.89C226.704 217.892 226.487 218.709 226.051 219.345C225.616 219.979 224.975 220.477 224.13 220.837L227.618 226.607H223.815L220.863 221.518C220.783 221.518 220.698 221.518 220.604 221.518C220.513 221.518 220.407 221.518 220.287 221.518H216.919V226.607H213.611V212.3H213.609ZM223.314 216.89C223.314 216.182 223.091 215.682 222.641 215.387C222.191 215.093 221.465 214.947 220.462 214.947H216.915V218.873H220.421C221.398 218.873 222.124 218.717 222.6 218.402C223.078 218.087 223.314 217.583 223.314 216.89Z" fill="black"/>
<path d="M231.813 226.607H228.228L234.607 212.3H238.609L244.988 226.607H241.303L239.995 223.561H233.06L231.813 226.607ZM236.548 215.126L234.151 220.876H238.965L236.548 215.126Z" fill="black"/>
<path d="M248.614 215.206H243.165V212.3H257.548V215.206H252.099V226.607H248.612V215.206H248.614Z" fill="black"/>
<path d="M259.51 212.3H262.997V226.607H259.51V212.3Z" fill="black"/>
<path d="M266.424 212.3H269.574L277.438 221.857V212.3H280.766V226.607H277.617L269.753 217.03V226.607H266.424V212.3Z" fill="black"/>
<path d="M283.501 219.513C283.501 217.898 283.845 216.527 284.531 215.406C285.216 214.284 286.175 213.426 287.404 212.831C288.632 212.237 290.051 211.94 291.662 211.94C293.67 211.94 295.251 212.358 296.407 213.191C297.563 214.027 298.326 215.105 298.696 216.427L295.209 216.807C294.944 216.099 294.519 215.583 293.931 215.256C293.343 214.928 292.562 214.764 291.583 214.764C290.104 214.764 288.98 215.175 288.215 215.996C287.448 216.818 287.066 217.97 287.066 219.454C287.066 222.58 288.722 224.142 292.039 224.142C293.506 224.142 294.739 223.922 295.744 223.481V221.277H292.039V218.672H298.973V225.004C298.061 225.632 297.011 226.115 295.823 226.457C294.635 226.799 293.379 226.967 292.059 226.967C290.262 226.967 288.728 226.673 287.452 226.087C286.179 225.498 285.2 224.648 284.52 223.533C283.841 222.415 283.501 221.075 283.501 219.513Z" fill="black"/>
<path d="M311.492 222.598C311.492 222.158 311.313 221.806 310.957 221.547C310.601 221.285 310.013 221.096 309.193 220.977L306.676 220.596C304.747 220.289 303.347 219.787 302.476 219.094C301.605 218.4 301.168 217.437 301.168 216.208C301.168 214.858 301.772 213.811 302.981 213.062C304.19 212.315 305.856 211.94 307.982 211.94C309.95 211.94 311.472 212.274 312.548 212.942C313.624 213.611 314.314 214.646 314.619 216.048L311.291 216.429C311.04 215.76 310.65 215.28 310.123 214.986C309.594 214.692 308.849 214.546 307.885 214.546C306.841 214.546 306.035 214.679 305.467 214.947C304.9 215.214 304.615 215.601 304.615 216.11C304.615 216.564 304.784 216.904 305.119 217.132C305.457 217.359 306.068 217.54 306.953 217.674L309.923 218.155C311.694 218.435 312.981 218.923 313.787 219.618C314.593 220.314 314.996 221.281 314.996 222.524C314.996 223.967 314.408 225.07 313.232 225.831C312.056 226.593 310.347 226.973 308.1 226.973C303.557 226.973 301.119 225.358 300.79 222.125H304.277C304.421 222.886 304.808 223.45 305.437 223.819C306.063 224.187 306.959 224.37 308.121 224.37C309.217 224.37 310.052 224.22 310.627 223.919C311.205 223.611 311.492 223.175 311.492 222.598Z" fill="black"/>
<path d="M213.609 232.83H222.32C227.162 232.83 229.583 234.353 229.583 237.397C229.583 239.2 228.643 240.459 226.761 241.169C229.085 241.947 230.245 243.353 230.245 245.388C230.245 247.075 229.606 248.358 228.33 249.234C227.054 250.111 225.188 250.549 222.735 250.549H213.607V232.83H213.609ZM224.625 236.368C224.102 236.061 223.26 235.909 222.098 235.909H217.632V239.906H222.293C223.357 239.906 224.141 239.741 224.649 239.41C225.156 239.078 225.41 238.558 225.41 237.846C225.41 237.167 225.15 236.675 224.625 236.368ZM226.049 245.166C226.049 244.355 225.754 243.76 225.166 243.379C224.578 242.999 223.652 242.809 222.393 242.809H217.632V247.475H222.393C223.685 247.475 224.617 247.294 225.19 246.929C225.762 246.565 226.049 245.977 226.049 245.166Z" fill="black"/>
<path d="M232.723 241.692C232.723 239.772 233.14 238.117 233.974 236.728C234.809 235.339 235.995 234.267 237.533 233.514C239.071 232.76 240.895 232.384 243.005 232.384C245.114 232.384 246.931 232.76 248.451 233.514C249.973 234.267 251.145 235.337 251.973 236.728C252.8 238.117 253.213 239.772 253.213 241.692C253.213 243.612 252.795 245.267 251.961 246.656C251.127 248.045 249.941 249.117 248.403 249.87C246.864 250.623 245.041 251 242.931 251C240.838 251 239.025 250.623 237.497 249.87C235.966 249.117 234.788 248.047 233.962 246.656C233.136 245.265 232.723 243.61 232.723 241.692ZM237.214 241.692C237.214 243.495 237.716 244.898 238.723 245.898C239.729 246.901 241.149 247.401 242.98 247.401C244.779 247.401 246.187 246.901 247.2 245.898C248.213 244.898 248.722 243.495 248.722 241.692C248.722 239.873 248.219 238.465 247.212 237.473C246.207 236.481 244.795 235.983 242.98 235.983C241.165 235.983 239.749 236.483 238.736 237.486C237.72 238.486 237.214 239.887 237.214 241.692Z" fill="black"/>
<path d="M255.764 241.692C255.764 239.772 256.181 238.117 257.016 236.728C257.85 235.339 259.036 234.267 260.574 233.514C262.112 232.76 263.936 232.384 266.046 232.384C268.156 232.384 269.973 232.76 271.492 233.514C273.014 234.267 274.186 235.337 275.014 236.728C275.841 238.117 276.254 239.772 276.254 241.692C276.254 243.612 275.837 245.267 275.002 246.656C274.168 248.045 272.982 249.117 271.444 249.87C269.905 250.623 268.082 251 265.972 251C263.879 251 262.066 250.623 260.538 249.87C259.007 249.117 257.829 248.047 257.003 246.656C256.177 245.265 255.764 243.61 255.764 241.692ZM260.255 241.692C260.255 243.495 260.757 244.898 261.764 245.898C262.77 246.901 264.19 247.401 266.021 247.401C267.82 247.401 269.228 246.901 270.241 245.898C271.254 244.898 271.763 243.495 271.763 241.692C271.763 239.873 271.26 238.465 270.253 237.473C269.248 236.481 267.836 235.983 266.021 235.983C264.206 235.983 262.79 236.483 261.777 237.486C260.761 238.486 260.255 239.887 260.255 241.692Z" fill="black"/>
<path d="M291.616 245.588C291.616 245.042 291.394 244.608 290.952 244.285C290.511 243.962 289.782 243.727 288.769 243.577L285.652 243.106C283.263 242.725 281.53 242.106 280.449 241.243C279.369 240.383 278.83 239.192 278.83 237.669C278.83 235.998 279.578 234.699 281.076 233.771C282.573 232.845 284.639 232.382 287.272 232.382C289.709 232.382 291.593 232.795 292.928 233.623C294.261 234.45 295.115 235.732 295.492 237.469L291.369 237.94C291.058 237.113 290.576 236.518 289.921 236.154C289.266 235.79 288.342 235.609 287.147 235.609C285.855 235.609 284.856 235.773 284.154 236.105C283.45 236.436 283.098 236.915 283.098 237.543C283.098 238.105 283.308 238.527 283.725 238.809C284.142 239.091 284.899 239.313 285.996 239.48L289.677 240.076C291.868 240.424 293.463 241.027 294.462 241.887C295.459 242.748 295.96 243.947 295.96 245.487C295.96 247.273 295.231 248.64 293.777 249.582C292.32 250.525 290.202 250.996 287.422 250.996C281.794 250.996 278.777 248.994 278.368 244.989H282.685C282.864 245.931 283.345 246.631 284.12 247.086C284.897 247.541 286.006 247.769 287.445 247.769C288.802 247.769 289.837 247.582 290.549 247.211C291.26 246.841 291.616 246.3 291.616 245.588Z" fill="black"/>
<path d="M303.934 236.43H297.187V232.83H315V236.43H308.253V250.551H303.934V236.43Z" fill="black"/>
<path d="M194.99 235.234H179.518C176.49 235.234 174.036 232.752 174.036 229.69V214.043C174.036 212.934 174.472 211.87 175.247 211.086L188.714 197.465C189.327 196.845 190.318 196.845 190.93 197.465L195.586 202.173C196.198 202.793 196.198 203.795 195.586 204.414L188.904 211.173C188.489 211.592 188.782 212.313 189.37 212.313H194.994C198.021 212.313 200.475 214.795 200.475 217.857V229.692C200.471 232.75 198.017 235.234 194.99 235.234Z" fill="#F23E16"/>
<path d="M163.681 212.292H148.21C145.182 212.292 142.728 214.774 142.728 217.836V233.483C142.728 234.592 143.163 235.656 143.939 236.44L157.406 250.062C158.019 250.681 159.01 250.681 159.622 250.062L164.278 245.353C164.89 244.734 164.89 243.731 164.278 243.112L157.596 236.354C157.181 235.934 157.474 235.214 158.062 235.214H163.685C166.713 235.214 169.167 232.732 169.167 229.669V217.834C169.165 214.774 166.709 212.292 163.681 212.292Z" fill="#262626"/>
<path d="M134.567 240.688H141.161C142.026 240.688 142.728 241.398 142.728 242.272V248.942C142.728 249.817 142.026 250.527 141.161 250.527H134.567C133.702 250.527 133 249.817 133 248.942V242.272C133 241.396 133.702 240.688 134.567 240.688Z" fill="#262626"/>
<defs>
<linearGradient id="paint0_linear_55_2129" x1="0" y1="224" x2="448" y2="224" gradientUnits="userSpaceOnUse">
<stop stop-color="#F23E16"/>
<stop offset="1" stop-color="#262626"/>
</linearGradient>
<linearGradient id="paint1_linear_55_2129" x1="0" y1="224" x2="448" y2="224" gradientUnits="userSpaceOnUse">
<stop stop-color="#F23E16"/>
<stop offset="1" stop-color="#262626"/>
</linearGradient>
<linearGradient id="paint2_linear_55_2129" x1="0" y1="224" x2="448" y2="224" gradientUnits="userSpaceOnUse">
<stop stop-color="#F23E16"/>
<stop offset="1" stop-color="#262626"/>
</linearGradient>
<linearGradient id="paint3_linear_55_2129" x1="0" y1="224" x2="448" y2="224" gradientUnits="userSpaceOnUse">
<stop stop-color="#F23E16"/>
<stop offset="1" stop-color="#262626"/>
</linearGradient>
</defs>
</svg>
