<svg width="896" height="263" viewBox="0 0 896 263" fill="none" xmlns="http://www.w3.org/2000/svg">
<path d="M396.93 74.9502H431.59C451.39 74.9502 461.29 82.3802 461.29 97.2502C461.29 102.12 460.22 106.09 458.08 109.18C455.94 112.26 452.79 114.68 448.64 116.43L465.78 144.47H447.09L432.58 119.74C432.19 119.74 431.77 119.74 431.31 119.74C430.86 119.74 430.34 119.74 429.75 119.74H413.2V144.47H396.94V74.9502H396.93ZM444.63 97.2502C444.63 93.8102 443.53 91.3802 441.32 89.9502C439.11 88.5202 435.54 87.8103 430.61 87.8103H413.18V106.89H430.41C435.21 106.89 438.78 106.13 441.12 104.6C443.47 103.07 444.63 100.62 444.63 97.2502Z" fill="black"/>
<path d="M486.4 144.47H468.78L500.13 74.9502H519.8L551.15 144.47H533.04L526.61 129.67H492.53L486.4 144.47ZM509.67 88.6802L497.89 116.62H521.55L509.67 88.6802Z" fill="black"/>
<path d="M568.969 89.0703H542.189V74.9502H612.88V89.0703H586.099V144.47H568.959V89.0703H568.969Z" fill="black"/>
<path d="M622.52 74.9502H639.66V144.47H622.52V74.9502Z" fill="black"/>
<path d="M656.5 74.9502H671.979L710.63 121.39V74.9502H726.99V144.47H711.51L672.859 97.9302V144.47H656.5V74.9502Z" fill="black"/>
<path d="M740.43 110C740.43 102.15 742.12 95.4903 745.49 90.0403C748.86 84.5903 753.57 80.4203 759.61 77.5303C765.65 74.6403 772.62 73.2002 780.54 73.2002C790.41 73.2002 798.18 75.2303 803.86 79.2803C809.54 83.3403 813.29 88.5802 815.11 95.0002L797.97 96.8503C796.67 93.4103 794.58 90.9003 791.69 89.3103C788.8 87.7203 784.96 86.9202 780.15 86.9202C772.88 86.9202 767.36 88.9202 763.6 92.9102C759.83 96.9002 757.95 102.5 757.95 109.71C757.95 124.9 766.09 132.49 782.39 132.49C789.6 132.49 795.66 131.42 800.6 129.28V118.57H782.39V105.91H816.47V136.68C811.99 139.73 806.83 142.08 800.99 143.74C795.15 145.4 788.98 146.22 782.49 146.22C773.66 146.22 766.12 144.79 759.85 141.94C753.59 139.08 748.78 134.95 745.44 129.53C742.1 124.1 740.43 117.59 740.43 110Z" fill="black"/>
<path d="M878 124.99C878 122.85 877.12 121.14 875.37 119.88C873.62 118.61 870.73 117.69 866.7 117.11L854.33 115.26C844.85 113.77 837.97 111.33 833.69 107.96C829.41 104.59 827.26 99.9102 827.26 93.9402C827.26 87.3802 830.23 82.2901 836.17 78.6501C842.11 75.0201 850.3 73.2002 860.75 73.2002C870.42 73.2002 877.9 74.8203 883.19 78.0703C888.48 81.3203 891.87 86.3502 893.37 93.1602L877.01 95.0103C875.78 91.7603 873.86 89.4302 871.27 88.0002C868.67 86.5702 865.01 85.8604 860.27 85.8604C855.14 85.8604 851.18 86.5103 848.39 87.8103C845.6 89.1103 844.2 90.9902 844.2 93.4602C844.2 95.6702 845.03 97.3202 846.68 98.4302C848.34 99.5302 851.34 100.41 855.69 101.06L870.29 103.4C878.99 104.76 885.32 107.13 889.28 110.51C893.24 113.89 895.22 118.59 895.22 124.63C895.22 131.64 892.33 137 886.55 140.7C880.77 144.4 872.37 146.25 861.33 146.25C839 146.25 827.02 138.4 825.4 122.69H842.54C843.25 126.39 845.15 129.13 848.24 130.92C851.32 132.71 855.72 133.6 861.43 133.6C866.82 133.6 870.92 132.87 873.75 131.41C876.59 129.91 878 127.79 878 124.99Z" fill="black"/>
<path d="M396.93 174.71H439.74C463.54 174.71 475.44 182.11 475.44 196.9C475.44 205.66 470.82 211.78 461.57 215.23C472.99 219.01 478.69 225.84 478.69 235.73C478.69 243.93 475.55 250.16 469.28 254.42C463.01 258.68 453.84 260.81 441.78 260.81H396.92V174.71H396.93ZM451.07 191.9C448.5 190.41 444.36 189.67 438.65 189.67H416.7V209.09H439.61C444.84 209.09 448.69 208.29 451.19 206.68C453.68 205.07 454.93 202.54 454.93 199.08C454.93 195.78 453.65 193.39 451.07 191.9ZM458.07 234.65C458.07 230.71 456.62 227.82 453.73 225.97C450.84 224.12 446.29 223.2 440.1 223.2H416.7V245.87H440.1C446.45 245.87 451.03 244.99 453.85 243.22C456.66 241.45 458.07 238.59 458.07 234.65Z" fill="black"/>
<path d="M490.87 217.77C490.87 208.44 492.92 200.4 497.02 193.65C501.12 186.9 506.95 181.69 514.51 178.03C522.07 174.37 531.03 172.54 541.4 172.54C551.77 172.54 560.7 174.37 568.17 178.03C575.65 181.69 581.41 186.89 585.48 193.65C589.54 200.4 591.57 208.44 591.57 217.77C591.57 227.1 589.52 235.14 585.42 241.89C581.32 248.64 575.49 253.85 567.93 257.51C560.37 261.17 551.41 263 541.04 263C530.75 263 521.84 261.17 514.33 257.51C506.81 253.85 501.02 248.65 496.96 241.89C492.9 235.13 490.87 227.09 490.87 217.77ZM512.94 217.77C512.94 226.53 515.41 233.35 520.36 238.21C525.3 243.08 532.28 245.51 541.28 245.51C550.12 245.51 557.04 243.08 562.02 238.21C567 233.35 569.5 226.53 569.5 217.77C569.5 208.93 567.03 202.09 562.08 197.27C557.14 192.45 550.2 190.03 541.28 190.03C532.36 190.03 525.4 192.46 520.42 197.33C515.43 202.19 512.94 209 512.94 217.77Z" fill="black"/>
<path d="M604.11 217.77C604.11 208.44 606.16 200.4 610.26 193.65C614.36 186.9 620.19 181.69 627.75 178.03C635.31 174.37 644.27 172.54 654.64 172.54C665.01 172.54 673.94 174.37 681.41 178.03C688.89 181.69 694.65 186.89 698.72 193.65C702.78 200.4 704.81 208.44 704.81 217.77C704.81 227.1 702.76 235.14 698.66 241.89C694.56 248.64 688.73 253.85 681.17 257.51C673.61 261.17 664.65 263 654.28 263C643.99 263 635.08 261.17 627.57 257.51C620.05 253.85 614.26 248.65 610.2 241.89C606.14 235.13 604.11 227.09 604.11 217.77ZM626.18 217.77C626.18 226.53 628.65 233.35 633.6 238.21C638.54 243.08 645.52 245.51 654.52 245.51C663.36 245.51 670.28 243.08 675.26 238.21C680.24 233.35 682.74 226.53 682.74 217.77C682.74 208.93 680.27 202.09 675.32 197.27C670.38 192.45 663.44 190.03 654.52 190.03C645.6 190.03 638.64 192.46 633.66 197.33C628.67 202.19 626.18 209 626.18 217.77Z" fill="black"/>
<path d="M780.31 236.7C780.31 234.05 779.22 231.94 777.05 230.37C774.88 228.8 771.3 227.66 766.32 226.93L751 224.64C739.26 222.79 730.74 219.78 725.43 215.59C720.12 211.41 717.47 205.62 717.47 198.22C717.47 190.1 721.15 183.79 728.51 179.28C735.87 174.78 746.02 172.53 758.96 172.53C770.94 172.53 780.2 174.54 786.76 178.56C793.31 182.58 797.51 188.81 799.36 197.25L779.1 199.54C777.57 195.52 775.2 192.63 771.98 190.86C768.76 189.09 764.22 188.21 758.35 188.21C752 188.21 747.09 189.01 743.64 190.62C740.18 192.23 738.45 194.56 738.45 197.61C738.45 200.34 739.48 202.39 741.53 203.76C743.58 205.13 747.3 206.21 752.69 207.02L770.78 209.92C781.55 211.61 789.39 214.54 794.3 218.72C799.2 222.9 801.66 228.73 801.66 236.21C801.66 244.89 798.08 251.53 790.93 256.11C783.77 260.69 773.36 262.98 759.7 262.98C732.04 262.98 717.21 253.25 715.2 233.79H736.42C737.3 238.37 739.66 241.77 743.47 243.98C747.29 246.19 752.74 247.3 759.81 247.3C766.48 247.3 771.57 246.39 775.07 244.59C778.56 242.79 780.31 240.16 780.31 236.7Z" fill="black"/>
<path d="M840.85 192.2H807.69V174.71H895.24V192.2H862.08V260.82H840.85V192.2Z" fill="black"/>
<path d="M305.42 186.39H229.38C214.5 186.39 202.44 174.33 202.44 159.45V83.4199C202.44 78.0299 204.58 72.86 208.39 69.05L274.58 2.86004C277.59 -0.149961 282.46 -0.149961 285.47 2.86004L308.35 25.7399C311.36 28.7499 311.36 33.6198 308.35 36.6298L275.51 69.4699C273.47 71.5099 274.91 75.0099 277.8 75.0099H305.44C320.32 75.0099 332.38 87.0699 332.38 101.95V159.46C332.36 174.32 320.3 186.39 305.42 186.39Z" fill="#F23E16"/>
<path d="M151.55 74.9102H75.5098C60.6298 74.9102 48.5698 86.9703 48.5698 101.85V177.88C48.5698 183.27 50.7098 188.44 54.5198 192.25L120.71 258.44C123.72 261.45 128.59 261.45 131.6 258.44L154.48 235.56C157.49 232.55 157.49 227.68 154.48 224.67L121.64 191.83C119.6 189.79 121.04 186.29 123.93 186.29H151.57C166.45 186.29 178.51 174.23 178.51 159.35V101.84C178.5 86.9703 166.43 74.9102 151.55 74.9102Z" fill="#262626"/>
<path d="M8.45978 212.89H40.8698C45.1198 212.89 48.5698 216.34 48.5698 220.59V253C48.5698 257.25 45.1198 260.7 40.8698 260.7H8.45978C4.20978 260.7 0.759766 257.25 0.759766 253V220.59C0.759766 216.33 4.20978 212.89 8.45978 212.89Z" fill="#262626"/>
</svg>
