<svg width="440" height="344" viewBox="0 0 440 344" fill="none" xmlns="http://www.w3.org/2000/svg">
<path d="M403.45 245.56H302.98C283.32 245.56 267.38 229.62 267.38 209.96V109.51C267.38 102.39 270.21 95.5599 275.24 90.5199L362.69 3.06991C366.66 -0.900093 373.1 -0.900093 377.07 3.06991L407.29 33.2899C411.26 37.2599 411.26 43.6999 407.29 47.6699L363.9 91.0599C361.2 93.7599 363.11 98.3699 366.93 98.3699H403.44C423.1 98.3699 439.04 114.31 439.04 133.97V209.95C439.05 229.63 423.11 245.56 403.45 245.56Z" fill="#F23E16"/>
<path d="M200.17 98.2799H99.7001C80.0401 98.2799 64.1001 114.22 64.1001 133.88V234.33C64.1001 241.45 66.9301 248.28 71.9601 253.32L159.41 340.77C163.38 344.74 169.82 344.74 173.79 340.77L204.01 310.55C207.98 306.58 207.98 300.14 204.01 296.17L160.62 252.78C157.92 250.08 159.83 245.47 163.65 245.47H200.16C219.82 245.47 235.76 229.53 235.76 209.87V133.89C235.77 114.21 219.83 98.2799 200.17 98.2799Z" fill="#262626"/>
<path d="M11.1202 280.58H53.9402C59.5602 280.58 64.1102 285.13 64.1102 290.75V333.57C64.1102 339.19 59.5602 343.74 53.9402 343.74H11.1202C5.50018 343.74 0.950195 339.19 0.950195 333.57V290.75C0.950195 285.13 5.50018 280.58 11.1202 280.58Z" fill="black"/>
</svg>
