<svg width="191" height="190" viewBox="0 0 191 190" fill="none" xmlns="http://www.w3.org/2000/svg">
<path d="M95.8965 72C122.087 72 145.773 74.6545 162.89 78.9336C171.454 81.0746 178.331 83.6126 183.049 86.4014C187.817 89.2198 190.146 92.1497 190.146 95C190.146 97.8503 187.817 100.78 183.049 103.599C178.331 106.387 171.454 108.925 162.89 111.066C145.773 115.346 122.087 118 95.8965 118C69.7059 118 46.0199 115.346 28.9033 111.066C20.3394 108.925 13.4624 106.387 8.74414 103.599C3.97571 100.78 1.64648 97.8503 1.64648 95C1.64648 92.1497 3.97571 89.2198 8.74414 86.4014C13.4624 83.6126 20.3394 81.0746 28.9033 78.9336C46.0199 74.6545 69.7059 72 95.8965 72Z" stroke="url(#paint0_linear_441_245)" stroke-width="1.5"/>
<path d="M95.8965 48.25C122.039 48.25 145.669 53.5495 162.736 62.083C179.848 70.639 190.146 82.3204 190.146 95C190.146 107.68 179.848 119.361 162.736 127.917C145.669 136.451 122.039 141.75 95.8965 141.75C69.7541 141.75 46.1237 136.451 29.0566 127.917C11.9448 119.361 1.64648 107.68 1.64648 95C1.64648 82.3204 11.9448 70.639 29.0566 62.083C46.1237 53.5495 69.7541 48.25 95.8965 48.25Z" stroke="url(#paint1_linear_441_245)" stroke-width="1.5"/>
<path d="M95.8965 24.5C121.983 24.5 145.572 32.4314 162.622 45.2188C179.671 58.0059 190.146 75.614 190.146 95C190.146 114.386 179.671 131.994 162.622 144.781C145.572 157.569 121.983 165.5 95.8965 165.5C69.8095 165.5 46.2207 157.569 29.1709 144.781C12.1215 131.994 1.64648 114.386 1.64648 95C1.64648 75.614 12.1215 58.0059 29.1709 45.2188C46.2207 32.4314 69.8095 24.5 95.8965 24.5Z" stroke="url(#paint2_linear_441_245)" stroke-width="1.5"/>
<circle cx="95.8965" cy="95" r="94.25" stroke="url(#paint3_linear_441_245)" stroke-width="1.5"/>
<defs>
<linearGradient id="paint0_linear_441_245" x1="2.40278" y1="110.494" x2="106.091" y2="0.328956" gradientUnits="userSpaceOnUse">
<stop stop-color="#616161"/>
<stop offset="1" stop-color="#F23E16"/>
</linearGradient>
<linearGradient id="paint1_linear_441_245" x1="2.40278" y1="125.989" x2="174.555" y2="34.5355" gradientUnits="userSpaceOnUse">
<stop stop-color="#616161"/>
<stop offset="1" stop-color="#F23E16"/>
</linearGradient>
<linearGradient id="paint2_linear_441_245" x1="2.40278" y1="141.483" x2="198.538" y2="72.0208" gradientUnits="userSpaceOnUse">
<stop stop-color="#616161"/>
<stop offset="1" stop-color="#F23E16"/>
</linearGradient>
<linearGradient id="paint3_linear_441_245" x1="2.40278" y1="156.978" x2="208.591" y2="102.21" gradientUnits="userSpaceOnUse">
<stop stop-color="#616161"/>
<stop offset="1" stop-color="#F23E16"/>
</linearGradient>
</defs>
</svg>
