<svg width="504" height="514" viewBox="0 0 504 514" fill="none" xmlns="http://www.w3.org/2000/svg">
<path d="M147.22 400.599C137.59 400.599 129.931 397.859 124.64 392.358C111.647 378.85 114.449 349.718 132.329 312.432C167.226 239.66 249.11 155.229 314.863 124.22C344.884 110.06 367.79 108.889 379.36 120.918C392.353 134.426 389.551 163.558 371.671 200.844C336.773 273.617 254.889 358.048 189.137 389.056C172.846 396.74 158.647 400.599 147.22 400.599ZM315.483 125.585C249.993 156.47 168.426 240.585 133.657 313.092C116.067 349.772 113.165 378.28 125.695 391.306C136.796 402.845 159.106 401.562 188.517 387.691C254.005 356.807 335.572 272.691 370.343 200.184C387.933 163.504 390.834 134.996 378.305 121.971C367.206 110.432 344.896 111.713 315.483 125.585Z" fill="#F23E16"/>
<path d="M140.304 402.561C129.047 402.561 120.304 399.267 114.644 392.69C101.402 377.301 106.268 345.545 127.996 305.564C168.985 230.138 257.781 146.619 325.936 119.386C355.872 107.424 378.395 107.851 389.353 120.586C402.595 135.974 397.729 167.73 376.001 207.711C335.013 283.137 246.218 366.656 178.062 393.889C163.587 399.673 150.843 402.561 140.304 402.561ZM363.7 112.202C353.369 112.202 340.805 115.061 326.475 120.786C258.593 147.91 170.135 231.128 129.288 306.292C107.88 345.686 102.947 376.815 115.755 391.698C126.272 403.92 148.208 404.201 177.522 392.488C245.404 365.364 333.863 282.147 374.709 206.983C396.117 167.59 401.05 136.461 388.242 121.578C382.866 115.33 374.505 112.202 363.7 112.202Z" fill="#F23E16"/>
<path d="M133.972 404.056C120.714 404.056 110.657 400.077 104.611 392.193C91.2046 374.712 98.3691 340.275 124.266 297.714C171.55 220 267.156 138.135 337.384 115.221C367.046 105.543 389.066 107.624 399.386 121.083C412.793 138.565 405.63 173.001 379.733 215.562C332.448 293.276 236.843 375.141 166.614 398.055C154.326 402.064 143.348 404.056 133.972 404.056ZM370.046 110.712C360.834 110.712 350.001 112.683 337.835 116.653C267.891 139.474 172.648 221.052 125.521 298.506C99.9689 340.501 92.7718 374.311 105.775 391.268C115.688 404.193 137.134 406.095 166.163 396.623C236.106 373.802 331.35 292.224 378.477 214.771C404.029 172.775 411.226 138.966 398.222 122.009C392.465 114.501 382.812 110.712 370.046 110.712Z" fill="#F23E16"/>
<path d="M128.04 405.201C112.46 405.201 101.093 400.358 94.5958 390.786C81.1463 370.971 90.85 333.819 121.219 288.855C174.973 209.271 277.221 129.851 349.148 111.813C378.782 104.382 399.617 108.074 409.402 122.49C422.852 142.305 413.148 179.457 382.779 224.421C329.024 304.005 226.776 383.426 154.85 401.463C144.892 403.96 135.926 405.201 128.04 405.201ZM375.97 109.574C368.21 109.574 359.359 110.803 349.502 113.274C277.875 131.236 176.014 210.384 122.436 289.708C92.4326 334.128 82.7282 370.658 95.8106 389.931C105.218 403.789 125.511 407.272 154.496 400.002C226.122 382.04 327.983 302.893 381.561 223.568C411.565 179.148 421.269 142.618 408.187 123.346C401.979 114.201 391.03 109.574 375.97 109.574Z" fill="#F23E16"/>
<path d="M123.396 405.823C104.749 405.823 91.5201 399.923 84.6551 388.378C71.3299 365.965 83.8265 326.088 118.941 278.972C179.3 197.984 287.96 121.851 361.163 109.258C390.171 104.269 410.291 109.676 419.342 124.899C432.667 147.312 420.17 187.189 385.056 234.305C324.698 315.293 216.037 391.426 142.834 404.019C135.826 405.224 129.336 405.823 123.396 405.823ZM380.614 108.955C374.756 108.955 368.346 109.548 361.409 110.741C288.524 123.279 180.282 199.155 120.118 279.881C85.8999 325.795 73.1145 366.063 85.919 387.599C94.6304 402.25 114.225 407.414 142.589 402.536C215.474 389.998 323.717 314.122 383.881 233.396C418.098 187.482 430.884 147.214 418.079 125.679C411.499 114.611 398.704 108.955 380.614 108.955Z" fill="#F23E16"/>
<path d="M120.074 406.115C97.563 406.115 82.0332 398.861 74.8553 384.862C62.0737 359.937 78.0223 316.269 117.518 268.051C184.578 186.179 299.346 114.223 373.357 107.648C401.602 105.138 420.893 112.32 429.145 128.413C441.927 153.337 425.978 197.005 386.483 245.224C319.422 327.096 204.654 399.053 130.643 405.627C126.967 405.953 123.442 406.115 120.074 406.115ZM373.486 109.147C299.813 115.691 185.495 187.407 118.652 269.014C79.552 316.75 63.6684 359.797 76.1644 384.165C84.1186 399.676 102.914 406.581 130.514 404.127C204.187 397.583 318.505 325.867 385.349 244.26C424.449 196.524 440.332 153.477 427.836 129.109C419.882 113.598 401.086 106.695 373.486 109.147Z" fill="#F23E16"/>
<path d="M118.391 406.193C118.378 406.193 118.369 406.193 118.355 406.193C90.9942 406.185 72.6357 397.169 65.2634 380.121C53.1294 352.059 72.4815 305.693 117.031 256.091C190.831 173.921 311.305 107.083 385.61 107.083C385.623 107.083 385.632 107.083 385.646 107.083C413.007 107.092 431.366 116.107 438.737 133.155C450.871 161.217 431.519 207.583 386.97 257.185C313.17 339.355 192.696 406.19 118.391 406.193ZM385.608 108.588C311.664 108.588 191.683 175.201 118.121 257.105C73.9793 306.254 54.7247 352.014 66.6165 379.514C73.7339 395.975 91.6251 404.68 118.355 404.688C118.365 404.688 118.383 404.688 118.392 404.688C192.336 404.694 312.318 338.075 385.879 256.17C430.022 207.022 449.276 161.261 437.385 133.761C430.267 117.3 412.376 108.596 385.646 108.588C385.636 108.588 385.618 108.588 385.608 108.588Z" fill="#F23E16"/>
<path d="M118.472 406.197C114.192 406.197 110.053 406.007 106.058 405.619C79.6724 403.055 62.3503 392.123 55.9653 374.005C44.8651 342.511 67.8953 293.572 117.569 243.093C198.138 161.22 323.913 100.473 397.942 107.657C424.328 110.221 441.65 121.153 448.035 139.271C459.134 170.765 436.105 219.704 386.431 270.182C310.208 347.638 193.522 406.195 118.472 406.197ZM385.472 108.581C310.798 108.581 194.587 166.954 118.612 244.159C69.3536 294.214 46.454 342.565 57.3547 373.497C63.5333 391.028 80.4226 401.617 106.199 404.122C179.832 411.277 305.088 350.715 385.387 269.117C434.646 219.062 457.545 170.711 446.645 139.779C440.466 122.248 423.577 111.659 397.801 109.154C393.836 108.769 389.72 108.581 385.472 108.581Z" fill="#F23E16"/>
<path d="M120.621 406.306C111.062 406.306 102.097 405.494 93.851 403.811C68.4995 398.635 52.3183 385.677 47.0582 366.338C37.4819 331.136 64.4567 279.821 119.215 229.072C206.49 148.186 337.007 94.5296 410.145 109.464C435.497 114.64 451.678 127.598 456.938 146.936C466.513 182.139 439.539 233.453 384.781 284.202C307.345 355.97 195.862 406.301 120.621 406.306ZM383.284 108.464C308.431 108.464 197.402 158.644 120.21 230.185C65.8723 280.544 39.0587 331.293 48.482 365.937C53.5834 384.692 69.3726 397.279 94.1422 402.336C102.32 404.005 111.23 404.811 120.712 404.811C195.566 404.816 306.595 354.631 383.787 283.09C438.125 232.731 464.939 181.982 455.515 147.339C450.413 128.583 434.625 115.997 409.855 110.94C401.677 109.27 392.766 108.464 383.284 108.464Z" fill="#F23E16"/>
<path d="M125.203 406.745C109.156 406.745 94.5157 404.787 81.8418 400.675C57.5566 392.795 42.6304 377.66 38.6762 356.906C31.2217 317.774 62.3922 264.371 122.056 214.051C215.93 134.879 350.557 89.369 422.156 112.602C446.441 120.482 461.368 135.617 465.322 156.371C472.776 195.502 441.606 248.906 381.943 299.227C304.684 364.384 199.817 406.741 125.203 406.745ZM378.691 108.014C304.465 108.014 200.014 150.255 122.999 215.209C63.7568 265.173 32.7762 318.037 40.1262 356.619C43.9707 376.8 58.5509 391.539 82.2899 399.241C153.471 422.335 287.47 376.949 380.999 298.067C440.241 248.103 471.221 195.239 463.871 156.657C460.026 136.476 445.447 121.737 421.707 114.034C409.139 109.957 394.609 108.014 378.691 108.014Z" fill="#F23E16"/>
<path d="M132.516 407.792C108.602 407.792 87.2769 404.042 70.1416 396.118C46.9341 385.386 33.396 367.865 30.9906 345.448C26.3564 302.263 61.9381 247.164 126.172 198.058C226.473 121.379 364.499 85.088 433.856 117.159C457.063 127.89 470.601 145.412 473.006 167.828C477.641 211.014 442.059 266.113 377.825 315.219C302.305 372.952 205.395 407.792 132.516 407.792ZM371.395 106.954C298.889 106.954 202.348 141.702 127.059 199.26C63.2466 248.045 27.8823 302.633 32.4591 345.284C34.8046 367.143 48.0463 384.248 70.7521 394.747C139.668 426.616 277.024 390.398 376.938 314.015C440.75 265.231 476.115 210.643 471.538 167.991C469.193 146.132 455.951 129.027 433.245 118.528C416.259 110.674 395.109 106.954 371.395 106.954Z" fill="#F23E16"/>
<path d="M142.697 409.773C109.443 409.773 80.2977 403.426 58.8749 390.053C36.751 376.241 24.7725 356.054 24.2365 331.673C23.1976 284.458 63.3485 228.183 131.641 181.138C238.135 107.776 378.764 81.7956 445.125 123.222C467.248 137.034 479.226 157.221 479.763 181.603C480.802 228.818 440.65 285.093 372.358 332.138C300.241 381.817 212.456 409.773 142.697 409.773ZM361.256 104.963C291.84 104.963 204.375 132.849 132.469 182.383C64.5933 229.141 24.6852 284.938 25.7132 331.639C26.2378 355.484 37.9721 375.239 59.6467 388.77C125.56 429.919 265.47 403.954 371.53 330.892C439.405 284.135 479.314 228.339 478.286 181.637C477.762 157.792 466.027 138.036 444.353 124.506C423.127 111.254 394.228 104.963 361.256 104.963Z" fill="#F23E16"/>
<path d="M155.583 413.043C111.603 413.043 73.4016 403.074 48.168 382.399C27.1473 365.176 16.9643 341.962 18.7215 315.267C22.0797 264.249 66.8699 207.455 138.538 163.343C250.919 94.1714 393.255 79.6065 455.831 130.877C476.852 148.1 487.035 171.314 485.277 198.009C481.919 249.027 437.128 305.821 365.461 349.933C298.398 391.21 220.665 413.043 155.583 413.043ZM348.423 101.69C283.639 101.69 206.175 123.47 139.301 164.631C68.0459 208.489 23.5201 264.839 20.1951 315.367C18.4716 341.551 28.4641 364.325 49.0941 381.227C111.224 432.132 252.803 417.517 364.697 348.645C435.952 304.787 480.477 248.437 483.803 197.909C485.527 171.725 475.533 148.95 454.904 132.049C429.906 111.567 392.035 101.69 348.423 101.69Z" fill="#F23E16"/>
<path d="M170.616 417.951C114.768 417.951 66.3797 403.057 38.1595 373.08C18.3052 351.992 10.2432 325.312 14.8443 295.926C23.3537 241.583 72.7316 185.065 146.931 144.741C264.82 80.6733 407.883 78.6352 465.839 140.196C485.693 161.285 493.756 187.964 489.154 217.35C480.646 271.693 431.267 328.211 357.067 368.536C296.582 401.406 229.459 417.951 170.616 417.951ZM333.439 96.7863C274.842 96.7863 207.946 113.287 147.625 146.069C73.8317 186.172 24.7386 242.282 16.302 296.164C11.7767 325.067 19.7029 351.304 39.2245 372.04C96.7548 433.148 239.026 430.981 356.371 367.21C430.166 327.106 479.259 270.995 487.695 217.114C492.221 188.211 484.294 161.973 464.773 141.238C436.816 111.541 388.835 96.7863 333.439 96.7863Z" fill="#F23E16"/>
<path d="M186.834 424.803C118.429 424.806 58.978 403.325 28.9891 362.028C10.4439 336.49 4.94225 305.843 13.0794 273.4C27.3549 216.483 81.114 161.158 156.886 125.406C279.828 67.3977 422.538 78.9903 475.008 151.247C493.553 176.786 499.055 207.432 490.918 239.875C476.643 296.794 422.884 352.118 347.112 387.87C294.436 412.724 238.115 424.801 186.834 424.803ZM317.246 89.9424C266.164 89.9424 210.037 101.986 157.507 126.771C82.1338 162.334 28.6774 217.288 14.5103 273.772C6.48657 305.762 11.9035 335.971 30.1758 361.133C82.2543 432.847 224.151 444.228 346.492 386.504C421.864 350.942 475.32 295.987 489.488 239.502C497.511 207.512 492.094 177.304 473.821 152.142C444.105 111.221 385.133 89.9424 317.246 89.9424Z" fill="#F23E16"/>
<path d="M203.045 433.828C121.892 433.832 50.9768 403.72 20.8036 349.183C3.82064 318.486 1.45287 283.34 13.9565 247.546C34.3844 189.069 92.1424 135.942 168.459 105.429C295.917 54.4707 437.106 80.7879 483.193 164.092C500.176 194.79 502.544 229.935 490.04 265.729C469.612 324.206 411.854 377.334 335.537 407.846C291.522 425.444 245.853 433.826 203.045 433.828ZM301.032 80.9301C258.385 80.9301 212.879 89.2865 168.999 106.83C93.0742 137.185 35.6356 189.978 15.3485 248.051C2.99145 283.422 5.3229 318.138 22.0905 348.445C67.8323 431.121 208.201 457.14 334.998 406.446C410.922 376.091 468.361 323.298 488.648 265.225C501.004 229.854 498.673 195.138 481.905 164.832C451.995 110.767 381.618 80.9301 301.032 80.9301Z" fill="#F23E16"/>
<path d="M218.074 445.153C124.406 445.157 42.2301 403.987 13.7543 334.494C-1.27394 297.818 0.200271 257.663 18.0169 218.371C44.6814 159.563 105.873 109.673 181.701 84.9145C313.045 42.0274 451.459 84.1356 490.242 178.781C505.27 215.456 503.796 255.611 485.98 294.903C459.315 353.711 398.125 403.601 322.295 428.361C287.39 439.758 251.975 445.153 218.074 445.153ZM285.981 69.6149C252.209 69.6149 216.94 74.9887 182.152 86.3471C106.71 110.98 45.8516 160.57 19.3573 219.002C1.71909 257.902 0.252537 297.638 15.1176 333.915C43.3608 402.841 124.965 443.657 218.016 443.661C251.788 443.662 287.057 438.287 321.845 426.929C397.287 402.296 458.145 352.705 484.639 294.273C502.277 255.373 503.743 215.637 488.878 179.361C460.635 110.435 379.03 69.6149 285.981 69.6149Z" fill="#F23E16"/>
<path d="M230.975 458.819C125.276 458.819 32.6931 403.842 7.99425 317.92C-4.52407 274.372 1.61559 228.778 25.7485 186.069C58.8872 127.423 121.179 82.9221 196.652 63.9772C331.188 30.2078 465.474 89.1429 496.004 195.354C508.523 238.903 502.383 284.496 478.251 327.205C445.113 385.851 382.821 430.353 307.347 449.298C281.645 455.75 255.937 458.819 230.975 458.819ZM273.054 55.9571C248.19 55.9571 222.611 59.011 197.006 65.4383C121.922 84.2858 59.9669 128.528 27.0289 186.82C3.1019 229.165 -2.98995 274.352 9.41237 317.498C33.9219 402.763 125.911 457.313 230.945 457.318C255.809 457.319 281.388 454.264 306.994 447.837C382.079 428.989 444.033 384.747 476.971 326.454C500.899 284.11 506.99 238.922 494.587 195.777C470.077 110.512 378.089 55.9571 273.054 55.9571Z" fill="#F23E16"/>
<path d="M241.118 474.789C123.932 474.795 22.3972 402.99 3.6748 299.432C-5.47573 248.818 6.54482 196.116 37.5216 151.034C76.1525 94.8114 140.236 55.343 213.34 42.7488C350.262 19.1564 479 95.9135 500.32 213.846C509.471 264.459 497.451 317.161 466.475 362.242C427.843 418.465 363.759 457.934 290.655 470.528C273.966 473.403 257.384 474.788 241.118 474.789ZM262.886 39.9908C246.691 39.9908 230.203 41.3681 213.586 44.2313C140.87 56.7593 77.1378 96.0018 38.732 151.896C7.98333 196.645 -3.95117 248.944 5.1267 299.159C23.7178 401.989 124.635 473.282 241.109 473.286C257.304 473.286 273.792 471.908 290.409 469.045C363.126 456.517 426.858 417.275 465.264 361.38C496.012 316.63 507.946 264.332 498.868 214.118C480.278 111.287 379.361 39.9908 262.886 39.9908Z" fill="#F23E16"/>
<path d="M248.171 492.979C119.954 492.99 11.4546 401.171 0.9592 279.005C-10.185 149.278 93.3651 33.703 231.789 21.3697C298.834 15.3968 363.97 34.2443 415.198 74.4423C466.444 114.655 497.641 171.416 503.041 234.271C508.44 297.125 487.396 358.541 443.784 407.205C400.188 455.852 339.256 485.933 272.211 491.907C264.144 492.625 256.108 492.978 248.171 492.979ZM256.092 21.7896C248.075 21.7896 240.013 22.1473 231.918 22.8684C94.3052 35.129 -8.64258 149.973 2.43086 278.874C12.858 400.246 120.728 491.467 248.173 491.474C256.078 491.475 264.045 491.124 272.084 490.408C338.757 484.467 399.347 454.559 442.694 406.191C486.024 357.842 506.934 296.832 501.57 234.402C496.206 171.972 465.212 115.587 414.296 75.634C369.545 40.5184 314.112 21.7896 256.092 21.7896Z" fill="#F23E16"/>
<path d="M251.999 513.276C113.047 513.276 0 398.149 0 256.638C0 115.127 113.047 0 251.999 0C390.953 0 503.999 115.127 503.999 256.638C503.999 398.149 390.953 513.276 251.999 513.276ZM251.999 1.50458C113.861 1.50458 1.47676 115.957 1.47676 256.638C1.47676 397.319 113.861 511.771 251.999 511.771C390.138 511.771 502.522 397.319 502.522 256.638C502.522 115.957 390.138 1.50458 251.999 1.50458Z" fill="#F23E16"/>
</svg>
