<svg width="496" height="496" viewBox="0 0 496 496" fill="none" xmlns="http://www.w3.org/2000/svg">
<path d="M353.21 173.29H282.31C268.44 173.29 257.19 162.04 257.19 148.17V77.2797C257.19 72.2497 259.19 67.4295 262.74 63.8795L324.45 2.16958C327.25 -0.63042 331.8 -0.63042 334.6 2.16958L355.93 23.4997C358.73 26.2997 358.73 30.8496 355.93 33.6496L325.31 64.2697C323.41 66.1797 324.75 69.4296 327.45 69.4296H353.22C367.09 69.4296 378.34 80.6797 378.34 94.5497V148.17C378.33 162.04 367.08 173.29 353.21 173.29Z" fill="#F23E16"/>
<path d="M209.74 69.3398H138.84C124.97 69.3398 113.72 80.5897 113.72 94.4597V165.35C113.72 170.38 115.72 175.2 119.27 178.75L180.98 240.46C183.78 243.26 188.33 243.26 191.13 240.46L212.46 219.13C215.26 216.33 215.26 211.78 212.46 208.98L181.84 178.36C179.94 176.46 181.28 173.2 183.98 173.2H209.75C223.62 173.2 234.87 161.95 234.87 148.08V94.4597C234.86 80.5897 223.61 69.3398 209.74 69.3398Z" fill="#262626"/>
<path d="M76.3201 198H106.54C110.5 198 113.72 201.21 113.72 205.18V235.4C113.72 239.36 110.51 242.58 106.54 242.58H76.3201C72.3601 242.58 69.1401 239.37 69.1401 235.4V205.18C69.1401 201.21 72.3501 198 76.3201 198Z" fill="#262626"/>
<path d="M0.160156 308.29H34.6402C54.3302 308.29 64.1802 315.68 64.1802 330.47C64.1802 335.31 63.1102 339.27 60.9802 342.33C58.8502 345.4 55.7202 347.8 51.5902 349.55L68.6402 377.44H50.0402L35.6102 352.84C35.2202 352.84 34.8002 352.84 34.3502 352.84C33.9002 352.84 33.3802 352.84 32.8002 352.84H16.3402V377.44H0.170166V308.29H0.160156ZM47.6202 330.47C47.6202 327.05 46.5202 324.63 44.3302 323.21C42.1302 321.79 38.5802 321.08 33.6802 321.08H16.3402V340.06H33.4802C38.2602 340.06 41.8102 339.3 44.1302 337.78C46.4602 336.26 47.6202 333.83 47.6202 330.47Z" fill="#262626"/>
<path d="M89.1603 377.44H71.6304L102.82 308.29H122.38L153.57 377.44H135.56L129.17 362.72H95.2704L89.1603 377.44ZM112.31 321.95L100.59 349.75H124.13L112.31 321.95Z" fill="#262626"/>
<path d="M171.29 322.33H144.66V308.29H214.97V322.33H188.34V377.44H171.29V322.33Z" fill="#262626"/>
<path d="M224.56 308.29H241.61V377.44H224.56V308.29Z" fill="#262626"/>
<path d="M258.36 308.29H273.76L312.21 354.49V308.29H328.48V377.44H313.08L274.63 331.15V377.44H258.36V308.29Z" fill="#262626"/>
<path d="M341.85 343.16C341.85 335.35 343.53 328.73 346.89 323.31C350.25 317.89 354.93 313.74 360.93 310.87C366.93 308 373.87 306.56 381.75 306.56C391.56 306.56 399.29 308.58 404.95 312.61C410.6 316.65 414.33 321.86 416.14 328.25L399.09 330.09C397.8 326.67 395.72 324.17 392.84 322.58C389.97 321 386.14 320.21 381.36 320.21C374.13 320.21 368.64 322.2 364.9 326.17C361.15 330.14 359.28 335.71 359.28 342.88C359.28 357.99 367.38 365.54 383.59 365.54C390.76 365.54 396.79 364.47 401.7 362.34V351.69H383.59V339.1H417.49V369.7C413.04 372.73 407.9 375.08 402.09 376.72C396.28 378.37 390.14 379.19 383.69 379.19C374.91 379.19 367.4 377.77 361.17 374.93C354.94 372.09 350.16 367.97 346.84 362.58C343.51 357.18 341.85 350.71 341.85 343.16Z" fill="#262626"/>
<path d="M478.7 358.07C478.7 355.94 477.83 354.24 476.08 352.98C474.34 351.72 471.46 350.8 467.46 350.22L455.16 348.38C445.73 346.9 438.89 344.47 434.63 341.12C430.37 337.76 428.24 333.11 428.24 327.17C428.24 320.65 431.19 315.58 437.1 311.96C443.01 308.35 451.16 306.54 461.55 306.54C471.17 306.54 478.61 308.15 483.87 311.38C489.13 314.61 492.51 319.61 493.99 326.39L477.72 328.23C476.49 325 474.59 322.68 472.01 321.26C469.43 319.84 465.78 319.13 461.07 319.13C455.97 319.13 452.03 319.78 449.25 321.07C446.47 322.36 445.08 324.23 445.08 326.69C445.08 328.89 445.9 330.53 447.55 331.63C449.2 332.73 452.18 333.6 456.51 334.24L471.04 336.56C479.69 337.92 485.99 340.27 489.93 343.63C493.87 346.99 495.84 351.67 495.84 357.67C495.84 364.64 492.97 369.97 487.22 373.65C481.47 377.33 473.11 379.17 462.14 379.17C439.93 379.17 428.02 371.36 426.4 355.73H443.45C444.16 359.41 446.05 362.14 449.12 363.91C452.19 365.69 456.56 366.57 462.24 366.57C467.6 366.57 471.68 365.84 474.49 364.39C477.29 362.96 478.7 360.85 478.7 358.07Z" fill="#262626"/>
<path d="M0.160156 407.53H42.7502C66.4202 407.53 78.2602 414.89 78.2602 429.6C78.2602 438.32 73.6602 444.4 64.4702 447.83C75.8302 451.59 81.5002 458.39 81.5002 468.22C81.5002 476.38 78.3802 482.58 72.1402 486.81C65.9002 491.05 56.7802 493.17 44.7902 493.17H0.160156V407.53ZM54.0202 424.62C51.4602 423.14 47.3402 422.4 41.6602 422.4H19.8302V441.71H42.6202C47.8202 441.71 51.6602 440.91 54.1402 439.31C56.6202 437.71 57.8602 435.19 57.8602 431.75C57.8602 428.48 56.5802 426.1 54.0202 424.62ZM60.9802 467.15C60.9802 463.23 59.5402 460.35 56.6602 458.51C53.7802 456.67 49.2602 455.75 43.1002 455.75H19.8302V478.3H43.1002C49.4202 478.3 53.9702 477.42 56.7802 475.66C59.5802 473.91 60.9802 471.07 60.9802 467.15Z" fill="#262626"/>
<path d="M93.6104 450.35C93.6104 441.07 95.6503 433.07 99.7303 426.36C103.81 419.64 109.61 414.47 117.12 410.82C124.64 407.18 133.55 405.36 143.87 405.36C154.19 405.36 163.06 407.18 170.5 410.82C177.94 414.46 183.67 419.64 187.71 426.36C191.75 433.08 193.77 441.08 193.77 450.35C193.77 459.63 191.73 467.62 187.65 474.34C183.57 481.06 177.77 486.24 170.26 489.87C162.74 493.51 153.83 495.33 143.51 495.33C133.27 495.33 124.42 493.51 116.94 489.87C109.46 486.23 103.7 481.05 99.6703 474.34C95.6303 467.63 93.6104 459.63 93.6104 450.35ZM115.56 450.35C115.56 459.07 118.02 465.85 122.94 470.68C127.86 475.52 134.8 477.94 143.75 477.94C152.55 477.94 159.42 475.52 164.38 470.68C169.34 465.84 171.82 459.06 171.82 450.35C171.82 441.55 169.36 434.76 164.44 429.96C159.52 425.16 152.62 422.76 143.75 422.76C134.87 422.76 127.95 425.18 123 430.02C118.04 434.86 115.56 441.64 115.56 450.35Z" fill="#262626"/>
<path d="M206.25 450.35C206.25 441.07 208.29 433.07 212.37 426.36C216.45 419.64 222.25 414.47 229.76 410.82C237.28 407.18 246.19 405.36 256.51 405.36C266.83 405.36 275.7 407.18 283.14 410.82C290.58 414.46 296.31 419.64 300.35 426.36C304.39 433.08 306.41 441.08 306.41 450.35C306.41 459.63 304.37 467.62 300.29 474.34C296.21 481.06 290.41 486.24 282.9 489.87C275.38 493.51 266.47 495.33 256.15 495.33C245.91 495.33 237.06 493.51 229.58 489.87C222.1 486.23 216.34 481.05 212.31 474.34C208.27 467.63 206.25 459.63 206.25 450.35ZM228.21 450.35C228.21 459.07 230.67 465.85 235.59 470.68C240.51 475.52 247.45 477.94 256.4 477.94C265.2 477.94 272.07 475.52 277.03 470.68C281.99 465.84 284.47 459.06 284.47 450.35C284.47 441.55 282.01 434.76 277.09 429.96C272.17 425.16 265.27 422.76 256.4 422.76C247.53 422.76 240.6 425.18 235.65 430.02C230.68 434.86 228.21 441.64 228.21 450.35Z" fill="#262626"/>
<path d="M381.52 469.19C381.52 466.55 380.44 464.45 378.28 462.89C376.12 461.33 372.56 460.19 367.6 459.47L352.37 457.19C340.69 455.35 332.22 452.35 326.94 448.19C321.66 444.03 319.02 438.27 319.02 430.92C319.02 422.84 322.68 416.57 330 412.08C337.32 407.6 347.41 405.36 360.29 405.36C372.21 405.36 381.42 407.36 387.94 411.36C394.46 415.36 398.64 421.56 400.48 429.95L380.33 432.23C378.81 428.23 376.45 425.35 373.25 423.59C370.05 421.83 365.53 420.95 359.69 420.95C353.37 420.95 348.49 421.75 345.06 423.35C341.62 424.95 339.9 427.27 339.9 430.31C339.9 433.03 340.92 435.07 342.96 436.43C345 437.79 348.7 438.87 354.06 439.67L372.05 442.55C382.77 444.23 390.56 447.15 395.44 451.31C400.32 455.47 402.76 461.27 402.76 468.7C402.76 477.34 399.2 483.94 392.08 488.49C384.96 493.05 374.61 495.33 361.01 495.33C333.5 495.33 318.74 485.65 316.74 466.3H337.85C338.73 470.86 341.07 474.24 344.87 476.44C348.67 478.64 354.09 479.74 361.12 479.74C367.76 479.74 372.82 478.84 376.29 477.04C379.78 475.24 381.52 472.63 381.52 469.19Z" fill="#262626"/>
<path d="M441.74 424.92H408.75V407.52H495.84V424.92H462.85V493.18H441.74V424.92Z" fill="#262626"/>
</svg>
