<svg width="65" height="58" viewBox="0 0 65 58" fill="none" xmlns="http://www.w3.org/2000/svg">
<path d="M23.9404 0.264526C26.0831 0.158338 28.6328 0.620523 31.4277 1.60632C37.0173 3.57788 43.5423 7.6267 49.666 13.2928C55.7897 18.959 60.3359 25.1539 62.7412 30.58C63.944 33.2933 64.6065 35.8033 64.6709 37.952C64.7352 40.0993 64.2025 41.8684 63.0361 43.1337C61.8698 44.3989 60.152 45.0705 58.0107 45.1766C55.868 45.2828 53.3185 44.8207 50.5234 43.8348C44.9339 41.8633 38.4089 37.8145 32.2852 32.1483C26.1617 26.4823 21.6153 20.2881 19.21 14.8622C18.0072 12.1489 17.3447 9.63881 17.2803 7.49011C17.2159 5.34295 17.7488 3.57377 18.915 2.30847C20.0814 1.04323 21.7992 0.370669 23.9404 0.264526Z" stroke="url(#paint0_linear_101_253)" stroke-width="0.5"/>
<path d="M20.7036 2.77618C22.8463 2.67 25.3959 3.13218 28.1909 4.11798C33.7805 6.08954 40.3055 10.1384 46.4292 15.8045C52.5529 21.4706 57.0991 27.6656 59.5044 33.0916C60.7072 35.805 61.3697 38.3149 61.4341 40.4637C61.4984 42.6109 60.9657 44.38 59.7993 45.6453C58.633 46.9106 56.9152 47.5822 54.7739 47.6883C52.6311 47.7945 50.0817 47.3324 47.2866 46.3465C41.6971 44.3749 35.1721 40.3261 29.0483 34.66C22.9249 28.994 18.3785 22.7997 15.9731 17.3738C14.7704 14.6605 14.1079 12.1505 14.0435 10.0018C13.9791 7.85461 14.5119 6.08543 15.6782 4.82013C16.8446 3.55489 18.5624 2.88233 20.7036 2.77618Z" stroke="url(#paint1_linear_101_253)" stroke-width="0.5"/>
<path d="M16.9434 5.28784C19.0861 5.18165 21.6357 5.64384 24.4307 6.62964C30.0202 8.6012 36.5452 12.65 42.6689 18.3162C48.7926 23.9823 53.3388 30.1772 55.7441 35.6033C56.947 38.3166 57.6094 40.8266 57.6738 42.9753C57.7382 45.1226 57.2054 46.8917 56.0391 48.157C54.8727 49.4222 53.1549 50.0938 51.0137 50.2C48.8709 50.3062 46.3214 49.844 43.5264 48.8582C37.9368 46.8866 31.4118 42.8378 25.2881 37.1716C19.1646 31.5056 14.6182 25.3114 12.2129 19.8855C11.0101 17.1722 10.3476 14.6621 10.2832 12.5134C10.2189 10.3663 10.7517 8.59709 11.918 7.33179C13.0843 6.06655 14.8021 5.39398 16.9434 5.28784Z" stroke="url(#paint2_linear_101_253)" stroke-width="0.5"/>
<path d="M13.1821 7.79956C15.3248 7.69337 17.8745 8.15556 20.6694 9.14136C26.259 11.1129 32.784 15.1617 38.9077 20.8279C45.0314 26.494 49.5776 32.689 51.9829 38.115C53.1857 40.8284 53.8482 43.3383 53.9126 45.4871C53.9769 47.6343 53.4442 49.4034 52.2778 50.6687C51.1115 51.9339 49.3937 52.6055 47.2524 52.7117C45.1097 52.8179 42.5602 52.3557 39.7651 51.3699C34.1756 49.3983 27.6506 45.3495 21.5269 39.6833C15.4034 34.0174 10.857 27.8231 8.45166 22.3972C7.24887 19.6839 6.58641 17.1738 6.52197 15.0251C6.45764 12.878 6.99045 11.1088 8.15674 9.84351C9.32307 8.57827 11.0409 7.9057 13.1821 7.79956Z" stroke="url(#paint3_linear_101_253)" stroke-width="0.5"/>
<path d="M9.42188 10.3112C11.5646 10.205 14.1142 10.6672 16.9092 11.653C22.4987 13.6246 29.0237 17.6734 35.1475 23.3395C41.2712 29.0057 45.8173 35.2006 48.2227 40.6266C49.4255 43.34 50.088 45.85 50.1523 47.9987C50.2167 50.146 49.6839 51.915 48.5176 53.1804C47.3512 54.4456 45.6334 55.1172 43.4922 55.2233C41.3494 55.3295 38.8 54.8674 36.0049 53.8815C30.4153 51.91 23.8903 47.8612 17.7666 42.195C11.6431 36.529 7.09672 30.3348 4.69141 24.9089C3.48861 22.1956 2.82616 19.6855 2.76172 17.5368C2.69738 15.3896 3.2302 13.6205 4.39648 12.3552C5.56281 11.0899 7.28061 10.4174 9.42188 10.3112Z" stroke="url(#paint4_linear_101_253)" stroke-width="0.5"/>
<path d="M6.91504 12.8225C9.05776 12.7163 11.6074 13.1785 14.4023 14.1643C19.9919 16.1359 26.5169 20.1847 32.6406 25.8508C38.7643 31.517 43.3105 37.7119 45.7158 43.1379C46.9186 45.8513 47.5811 48.3613 47.6455 50.51C47.7098 52.6572 47.1771 54.4263 46.0107 55.6917C44.8444 56.9569 43.1266 57.6285 40.9854 57.7346C38.8426 57.8408 36.2931 57.3787 33.498 56.3928C27.9085 54.4213 21.3835 50.3724 15.2598 44.7063C9.13629 39.0403 4.58988 32.8461 2.18457 27.4202C0.981778 24.7069 0.319324 22.1968 0.254883 20.0481C0.190549 17.9009 0.72336 16.1318 1.88965 14.8665C3.05598 13.6012 4.77378 12.9287 6.91504 12.8225Z" stroke="url(#paint5_linear_101_253)" stroke-width="0.5"/>
<defs>
<linearGradient id="paint0_linear_101_253" x1="32.6718" y1="34.9758" x2="50.8884" y2="12.4043" gradientUnits="userSpaceOnUse">
<stop stop-color="#616161"/>
<stop offset="1" stop-color="#F23E16"/>
</linearGradient>
<linearGradient id="paint1_linear_101_253" x1="29.435" y1="37.4875" x2="47.6516" y2="14.916" gradientUnits="userSpaceOnUse">
<stop stop-color="#616161"/>
<stop offset="1" stop-color="#F23E16"/>
</linearGradient>
<linearGradient id="paint2_linear_101_253" x1="25.6747" y1="39.9991" x2="43.8913" y2="17.4276" gradientUnits="userSpaceOnUse">
<stop stop-color="#616161"/>
<stop offset="1" stop-color="#F23E16"/>
</linearGradient>
<linearGradient id="paint3_linear_101_253" x1="21.9135" y1="42.5108" x2="40.1301" y2="19.9394" gradientUnits="userSpaceOnUse">
<stop stop-color="#616161"/>
<stop offset="1" stop-color="#F23E16"/>
</linearGradient>
<linearGradient id="paint4_linear_101_253" x1="18.1532" y1="45.0225" x2="36.3698" y2="22.451" gradientUnits="userSpaceOnUse">
<stop stop-color="#616161"/>
<stop offset="1" stop-color="#F23E16"/>
</linearGradient>
<linearGradient id="paint5_linear_101_253" x1="15.6464" y1="47.5338" x2="33.863" y2="24.9623" gradientUnits="userSpaceOnUse">
<stop stop-color="#616161"/>
<stop offset="1" stop-color="#F23E16"/>
</linearGradient>
</defs>
</svg>
