<svg width="59" height="58" viewBox="0 0 59 58" fill="none" xmlns="http://www.w3.org/2000/svg">
<circle cx="29.9751" cy="29" r="28.75" stroke="url(#paint0_linear_101_333)" stroke-width="0.5"/>
<path d="M29.9751 14.4541C37.934 14.4541 45.1299 16.8903 50.3306 20.8174C55.5311 24.7443 58.7251 30.1512 58.7251 36.1025C58.7249 42.0537 55.5309 47.4599 50.3306 51.3867C45.1299 55.3138 37.934 57.75 29.9751 57.75C22.0162 57.75 14.8203 55.3138 9.61963 51.3867C4.41925 47.4599 1.22527 42.0537 1.2251 36.1025C1.2251 30.1512 4.41911 24.7443 9.61963 20.8174C14.8203 16.8903 22.0162 14.4541 29.9751 14.4541Z" stroke="url(#paint1_linear_101_333)" stroke-width="0.5"/>
<path d="M29.9751 28.6581C37.9521 28.6581 45.1617 30.3087 50.3677 32.9648C55.5871 35.6278 58.7251 39.2614 58.7251 43.204C58.7251 47.1467 55.5871 50.7803 50.3677 53.4433C45.1617 56.0994 37.9521 57.7499 29.9751 57.7499C21.9981 57.7499 14.7885 56.0994 9.58252 53.4433C4.3631 50.7803 1.2251 47.1467 1.2251 43.204C1.22511 39.2614 4.3631 35.6278 9.58252 32.9648C14.7885 30.3087 21.9981 28.6581 29.9751 28.6581Z" stroke="url(#paint2_linear_101_333)" stroke-width="0.5"/>
<path d="M29.9751 39.3112C37.9643 39.3112 45.1871 40.3685 50.4038 42.072C53.0135 42.9241 55.1073 43.9339 56.5435 45.0427C57.983 46.154 58.7251 47.3352 58.7251 48.5309C58.725 49.7265 57.9828 50.907 56.5435 52.0182C55.1073 53.127 53.0135 54.1368 50.4038 54.989C45.1871 56.6924 37.9643 57.7497 29.9751 57.7497C21.9859 57.7497 14.7631 56.6924 9.54639 54.989C6.93672 54.1368 4.84289 53.127 3.40674 52.0182C1.96743 50.907 1.22524 49.7265 1.2251 48.5309C1.2251 47.3352 1.9672 46.154 3.40674 45.0427C4.84291 43.9339 6.93668 42.9241 9.54639 42.072C14.7631 40.3685 21.9859 39.3112 29.9751 39.3112Z" stroke="url(#paint3_linear_101_333)" stroke-width="0.5"/>
<path d="M29.9751 48.7806C37.974 48.7806 45.2099 49.3104 50.4409 50.1644C53.0583 50.5918 55.1621 51.0983 56.606 51.6556C57.3291 51.9348 57.8723 52.2209 58.23 52.5062C58.5912 52.7945 58.725 53.0496 58.7251 53.265C58.7251 53.4805 58.5913 53.7355 58.23 54.0238C57.8723 54.3092 57.3292 54.5962 56.606 54.8754C55.1621 55.4327 53.0583 55.9393 50.4409 56.3666C45.2099 57.2206 37.974 57.7504 29.9751 57.7504C21.9762 57.7504 14.7403 57.2206 9.50928 56.3666C6.89193 55.9393 4.78807 55.4327 3.34424 54.8754C2.62101 54.5962 2.07793 54.3092 1.72021 54.0238C1.35888 53.7355 1.2251 53.4805 1.2251 53.265C1.22523 53.0496 1.35895 52.7945 1.72021 52.5062C2.07793 52.2209 2.62113 51.9348 3.34424 51.6556C4.78807 51.0983 6.89189 50.5918 9.50928 50.1644C14.7403 49.3104 21.9762 48.7806 29.9751 48.7806Z" stroke="url(#paint4_linear_101_333)" stroke-width="0.5"/>
<defs>
<linearGradient id="paint0_linear_101_333" x1="29.9751" y1="-9.60903e-08" x2="26.8908" y2="57.8355" gradientUnits="userSpaceOnUse">
<stop stop-color="#F23E16"/>
<stop offset="0.663462" stop-color="#616161"/>
</linearGradient>
<linearGradient id="paint1_linear_101_333" x1="29.9751" y1="14.2041" x2="28.2143" y2="57.9291" gradientUnits="userSpaceOnUse">
<stop stop-color="#F23E16"/>
<stop offset="0.663462" stop-color="#616161"/>
</linearGradient>
<linearGradient id="paint2_linear_101_333" x1="29.9751" y1="28.4081" x2="29.1705" y2="57.9781" gradientUnits="userSpaceOnUse">
<stop stop-color="#F23E16"/>
<stop offset="0.663462" stop-color="#616161"/>
</linearGradient>
<linearGradient id="paint3_linear_101_333" x1="29.9751" y1="39.0612" x2="29.6454" y2="57.9943" gradientUnits="userSpaceOnUse">
<stop stop-color="#F23E16"/>
<stop offset="0.663462" stop-color="#616161"/>
</linearGradient>
<linearGradient id="paint4_linear_101_333" x1="29.9751" y1="48.5306" x2="29.8927" y2="57.9993" gradientUnits="userSpaceOnUse">
<stop stop-color="#F23E16"/>
<stop offset="0.663462" stop-color="#616161"/>
</linearGradient>
</defs>
</svg>
